<svg width="87" height="87" viewBox="0 0 87 87" fill="none" xmlns="http://www.w3.org/2000/svg">
<path fill-rule="evenodd" clip-rule="evenodd" d="M34 41.5V47.5001C34.5 58 52 60 53 46.5001V41.5001C53 29 34 29 34 41.5ZM38.5 41.5001V46.5001C38.5 52.0001 48 52.5001 48 46.5001V41.5001C48 35.5001 38.5 35.5001 38.5 41.5001Z" fill="white"/>
<path d="M55 56V43.5C55 35 60 32 65 32H74.5V37H65C62.5 37 60 38 60 42.5V44H74.5V49H60V56H55Z" fill="white"/>
<path fill-rule="evenodd" clip-rule="evenodd" d="M32 32H23C18.5 32 12 33.5 12 41.5V56H17V49H27V56H32V32ZM27 36.5V44H17V41C17 37.4 20.3333 36.5 22 36.5H27Z" fill="white"/>
<path fill-rule="evenodd" clip-rule="evenodd" d="M43.5 87C67.5244 87 87 67.5244 87 43.5C87 19.4756 67.5244 0 43.5 0C19.4756 0 0 19.4756 0 43.5C0 67.5244 19.4756 87 43.5 87ZM43.5 81C64.2107 81 81 64.2107 81 43.5C81 22.7893 64.2107 6 43.5 6C22.7893 6 6 22.7893 6 43.5C6 64.2107 22.7893 81 43.5 81Z" fill="white"/>
</svg>
