<svg width="24" height="24" viewBox="0 0 24 24" fill="none" xmlns="http://www.w3.org/2000/svg">
<title>Magic</title>
<path fill-rule="evenodd" clip-rule="evenodd" d="M10.4408 2.0803C10.8092 1.92305 11.2359 2.00081 11.5251 2.27791C12.2702 2.99168 13.2236 4.57755 13.697 6.39742C14.1032 7.95931 14.193 9.84439 13.3613 11.589C13.5124 11.6264 13.6221 11.6049 13.7234 11.5661C14.1134 11.4168 14.7776 10.8512 15.8173 9.17808C15.9818 8.91343 16.2602 8.74056 16.5704 8.71056C16.8805 8.68055 17.1869 8.79683 17.3991 9.02504C18.0547 9.73032 18.6929 10.8108 19.1648 11.9067C19.6338 12.9957 20 14.2417 20 15.2941C20 17.3521 19.1462 19.3165 17.6415 20.758C16.1383 22.1981 14.1082 23 12 23C9.89179 23 7.86174 22.1981 6.35848 20.758C4.85376 19.3165 4 17.3521 4 15.2941C4 13.064 5.00707 10.5929 6.63175 8.99332L6.63233 8.99275C6.67011 8.95562 6.70807 8.91835 6.74619 8.88093C8.18162 7.47199 9.83333 5.85074 9.83333 3.00002C9.83333 2.59946 10.0724 2.23755 10.4408 2.0803ZM11.3803 5.76599C10.6609 7.85054 9.23432 9.24541 8.21382 10.2433C8.15265 10.3031 8.09293 10.3615 8.03491 10.4185C6.79893 11.6354 6 13.5901 6 15.2941C6 16.7932 6.62124 18.2401 7.74203 19.3138C8.86427 20.3889 10.3952 21 12 21C13.6048 21 15.1357 20.3889 16.258 19.3138C17.3788 18.2401 18 16.7932 18 15.2941C18 14.6343 17.7502 13.6786 17.3279 12.6977C17.1345 12.2486 16.9179 11.8243 16.6969 11.4503C15.9521 12.4546 15.2238 13.1333 14.4384 13.4339C13.197 13.9092 12.1635 13.3467 11.379 12.725C10.9631 12.3954 10.877 11.7984 11.1828 11.3648C12.1183 10.0385 12.1568 8.42107 11.7614 6.90087C11.6566 6.49822 11.5251 6.11689 11.3803 5.76599Z" fill="white"/>
</svg>
